<?xml version="1.0" standalone="no"?>
<!DOCTYPE svg PUBLIC "-//W3C//DTD SVG 1.1//EN" "http://www.w3.org/Graphics/SVG/1.1/DTD/svg11.dtd" >
<svg xmlns="http://www.w3.org/2000/svg">
<metadata>Generated by IcoMoon</metadata>
<defs>
<font id="icon" horiz-adv-x="1024">
<font-face units-per-em="1024" ascent="960" descent="-64" />
<missing-glyph horiz-adv-x="1024" />
<glyph unicode="&#x20;" horiz-adv-x="512" d="" />
<glyph unicode="&#xe900;" glyph-name="add" horiz-adv-x="1028" d="M512-64c-282.769 0-512 229.231-512 512s229.231 512 512 512 512-229.231 512-512-229.231-512-512-512zM469.333 490.667h-213.333c-23.564 0-42.667-19.103-42.667-42.667s19.103-42.667 42.667-42.667h213.333v-213.333c0-23.564 19.103-42.667 42.667-42.667s42.667 19.103 42.667 42.667v213.333h213.333c23.564 0 42.667 19.103 42.667 42.667s-19.103 42.667-42.667 42.667h-213.333v213.333c0 23.564-19.103 42.667-42.667 42.667s-42.667-19.103-42.667-42.667v-213.333z" />
<glyph unicode="&#xe901;" glyph-name="add-b" d="M512 832c211.2 0 384-172.8 384-384s-172.8-384-384-384-384 172.8-384 384 172.8 384 384 384zM512 896c-249.6 0-448-198.4-448-448s198.4-448 448-448 448 198.4 448 448-198.4 448-448 448zM288 448c0-17.673 14.327-32 32-32s32 14.327 32 32v0c0 17.673-14.327 32-32 32s-32-14.327-32-32v0zM672 448c0-17.673 14.327-32 32-32s32 14.327 32 32v0c0 17.673-14.327 32-32 32s-32-14.327-32-32v0zM480 640c0-17.673 14.327-32 32-32s32 14.327 32 32v0c0 17.673-14.327 32-32 32s-32-14.327-32-32v0zM480 256c0-17.673 14.327-32 32-32s32 14.327 32 32v0c0 17.673-14.327 32-32 32s-32-14.327-32-32v0zM320 480h384v-64h-384zM480 640h64v-384h-64z" />
<glyph unicode="&#xe902;" glyph-name="cart" d="M351.552 128.576c-35.328 0-63.968-28.64-63.968-63.968s28.64-63.968 63.968-63.968c35.328 0 63.968 28.64 63.968 63.968s-28.64 63.968-63.968 63.968v0 0zM799.296 128.576c-35.328 0-63.968-28.64-63.968-63.968s28.64-63.968 63.968-63.968c35.328 0 63.968 28.64 63.968 63.968s-28.64 63.968-63.968 63.968v0 0zM862.752 160.544h-519.488c-46.080 0-86.592 36.448-92.224 83.008l-54.24 381.856-30.88 178.464c-1.92 15.584-16.128 28.288-29.984 28.288h-40.736c-17.664 0-32 14.336-32 31.968 0 17.664 14.336 32 32 32h40.736c46.656 0 87.616-36.448 93.28-83.008l30.784-177.792 54.464-383.488c1.792-14.848 15.232-27.36 28.768-27.36h519.488c17.696 0 32-14.304 32-31.968s-14.304-31.968-31.968-31.968v0zM383.232 288.48c-16.608 0-30.624 12.8-31.872 29.632-1.312 17.632 11.936 32.928 29.504 34.208l433.856 31.968c15.936 0.096 29.344 12.608 31.104 26.816l50.368 288.224c1.28 10.752-1.696 22.528-8.128 29.792-4.128 4.672-9.312 7.040-15.36 7.040h-553.664c-17.664 0-32 14.336-32 31.968 0 17.664 14.336 31.968 32 31.968h553.728c24.448 0 46.88-10.144 63.232-28.608 18.688-21.088 27.264-50.784 23.52-81.568l-50.4-288.256c-5.44-44.832-45.92-81.28-92-81.28l-431.52-31.808c-0.8-0.064-1.6-0.096-2.368-0.096v0z" />
<glyph unicode="&#xe903;" glyph-name="check" d="M858.581 101.312c-88.793-88.793-211.46-143.712-346.953-143.712-270.988 0-490.667 219.679-490.667 490.667s219.679 490.667 490.667 490.667c135.494 0 258.16-54.919 346.953-143.712v0c88.794-88.793 143.714-211.46 143.714-346.955s-54.92-258.161-143.714-346.954v0zM828.416 765.056c-81.070 81.062-193.064 131.2-316.768 131.2-247.424 0-448-200.576-448-448s200.576-448 448-448c123.704 0 235.697 50.138 316.768 131.2v0c81.082 81.074 131.232 193.080 131.232 316.8s-50.151 235.726-131.232 316.8v0zM457.344 263.061c-2.026-1.882-4.75-3.037-7.744-3.037s-5.718 1.155-7.751 3.043l0.007-0.007-205.056 207.68c-1.936 1.931-3.134 4.602-3.134 7.552s1.198 5.621 3.134 7.552v0l15.083 15.083c1.93 1.93 4.596 3.123 7.541 3.123s5.611-1.193 7.541-3.123v0l182.827-185.195 323.456 321.003c1.93 1.93 4.596 3.123 7.541 3.123s5.611-1.193 7.541-3.123v0l15.104-15.083c1.93-1.93 3.123-4.596 3.123-7.541s-1.193-5.611-3.123-7.541v0z" />
<glyph unicode="&#xe904;" glyph-name="down" d="M512 192c-8 0-16 3.2-22.4 9.6l-384 384c-12.8 12.8-12.8 32 0 44.8s32 12.8 44.8 0l361.6-361.6 361.6 361.6c12.8 12.8 32 12.8 44.8 0s12.8-32 0-44.8l-384-384c-6.4-6.4-14.4-9.6-22.4-9.6z" />
<glyph unicode="&#xe905;" glyph-name="left" d="M672 32c-8 0-16 3.2-22.4 9.6l-384 384c-12.8 12.8-12.8 32 0 44.8l384 384c12.8 12.8 32 12.8 44.8 0s12.8-32 0-44.8l-361.6-361.6 361.6-361.6c12.8-12.8 12.8-32 0-44.8-6.4-6.4-14.4-9.6-22.4-9.6z" />
<glyph unicode="&#xe906;" glyph-name="no" d="M512 4.267c-121.89 0-227.584 43.878-314.146 130.441-85.982 86.016-129.587 191.403-129.587 313.293 0 121.856 43.588 227.55 129.536 314.112l0.154 0.154c86.613 85.948 192.239 129.468 314.044 129.468 121.907 0 227.294-43.605 313.293-129.587 86.562-86.562 130.441-192.256 130.441-314.146 0-121.907-43.895-227.311-130.458-313.327l-0.017-0.017c-85.931-86.494-191.334-130.389-313.259-130.389zM210.176 725.692c-71.509-77.517-107.776-170.871-107.776-277.692 0-112.503 40.226-209.783 119.586-289.161 79.923-79.923 177.51-120.439 290.014-120.439 106.786 0 199.868 36.506 276.924 108.544l-578.748 578.748zM234.308 749.824l578.731-578.731c72.073 77.107 108.561 170.155 108.561 276.907 0 112.503-40.516 210.091-120.439 290.014-79.36 79.36-176.64 119.586-289.161 119.586-106.803 0-200.141-36.25-277.692-107.776z" />
<glyph unicode="&#xe907;" glyph-name="reduce" d="M512.049 957.264c70.555 0 136.938-13.466 199.146-40.398 62.209-26.931 116.263-63.346 162.16-109.246 45.899-45.899 82.315-99.763 109.248-161.593 26.931-61.829 40.397-128.021 40.396-198.576 0-70.555-13.466-136.938-40.396-199.146-26.932-62.208-63.347-116.262-109.248-162.161-45.897-45.899-99.952-82.314-162.16-109.247-62.208-26.931-128.59-40.396-199.146-40.396s-136.748 13.466-198.576 40.396c-61.83 26.933-115.694 63.348-161.593 109.247-45.9 45.899-82.315 99.953-109.246 162.161s-40.397 128.591-40.398 199.146c0 70.555 13.465 136.748 40.398 198.576 26.932 61.83 63.347 115.694 109.246 161.593 45.898 45.899 99.763 82.315 161.593 109.246s128.022 40.398 198.576 40.398v0zM765.817 378.034c22.761 0 43.243 5.88 61.449 17.639 18.209 11.759 27.313 29.397 27.313 52.915 0 22.761-9.104 39.641-27.313 50.641-18.206 11-38.688 16.501-61.449 16.501h-502.984c-22.76 0-43.623-5.501-62.589-16.501s-28.45-27.88-28.45-50.641c0-23.517 9.483-41.156 28.45-52.915s39.829-17.639 62.589-17.639h502.984z" />
<glyph unicode="&#xe908;" glyph-name="right" d="M352 32c-8 0-16 3.2-22.4 9.6-12.8 12.8-12.8 32 0 44.8l361.6 361.6-361.6 361.6c-12.8 12.8-12.8 32 0 44.8s32 12.8 44.8 0l384-384c12.8-12.8 12.8-32 0-44.8l-384-384c-6.4-6.4-14.4-9.6-22.4-9.6z" />
<glyph unicode="&#xe909;" glyph-name="up" d="M896 256c-8 0-16 3.2-22.4 9.6l-361.6 361.6-361.6-361.6c-12.8-12.8-32-12.8-44.8 0s-12.8 32 0 44.8l384 384c12.8 12.8 32 12.8 44.8 0l384-384c12.8-12.8 12.8-32 0-44.8-6.4-6.4-14.4-9.6-22.4-9.6z" />
<glyph unicode="&#xe90a;" glyph-name="close" d="M752.5 632.7h-486.5c-109.1 0-197.5-88.4-197.5-197.5s88.4-197.5 197.5-197.5h486.5c109.1 0 197.5 88.4 197.5 197.5s-88.4 197.5-197.5 197.5zM271.9 263.3c-94.9 0-171.9 77-171.9 171.9s77 171.9 171.9 171.9 171.9-77 171.9-171.9-77-171.9-171.9-171.9z" />
<glyph unicode="&#xe90b;" glyph-name="open" d="M752.5 632.7h-486.5c-109.1 0-197.5-88.4-197.5-197.5s88.4-197.5 197.5-197.5h486.5c109.1 0 197.5 88.4 197.5 197.5s-88.4 197.5-197.5 197.5zM737.9 263.3c-94.9 0-171.9 77-171.9 171.9s77 171.9 171.9 171.9 171.9-77 171.9-171.9-77-171.9-171.9-171.9z" />
<glyph unicode="&#xe90c;" glyph-name="alipay" d="M1014.946 138.429c-109.514 44.409-217.304 88.603-325.093 134.952-9.675 4.951-19.034 10.495-28.025 16.6-15.306-17.462-29.534-35.571-45.703-51.955-87.309-88.603-189.063-141.635-317.763-132.581-34.751 2.61-68.872 10.686-101.107 23.929-85.59 38.343-129.763 133.959-103.478 223.987 16.058 52.836 58.299 93.609 111.67 107.789 68.49 20.373 141.144 22.307 210.621 5.605 69.201-14.444 137.755-32.984 210.621-50.661l59.5 143.36h-421.026v62.518h211.267v51.092h-251.796v51.523h252.659v125.683h132.365v-125.036h249.209v-51.092h-248.131v-52.17h199.195c-16.634-81.025-45.723-158.984-86.232-231.101 47.212-14.875 93.346-28.672 139.264-43.116 53.464-18.396 107.143-37.080 161.037-56.051v448.62c0 121.323-98.352 219.675-219.675 219.675h-584.65c-121.323 0-219.675-98.352-219.675-219.675v-584.65c0-121.323 98.352-219.675 219.675-219.675h584.65c113.382-0.039 208.128 86.298 218.597 199.195-2.587 1.078-5.389 1.94-7.976 3.234zM237.363 408.598c-55.688-0.005-100.83-43.846-100.83-97.925s45.141-97.92 100.83-97.925c52.275-8.369 105.918-2.4 154.889 17.235 62.263 21.206 116.091 60.873 153.881 113.398-66.756 36.037-133.915 68.156-211.561 69.527-32.467 2.142-65.079 0.697-97.209-4.309v0z" />
<glyph unicode="&#xe90d;" glyph-name="chinese" horiz-adv-x="1136" d="M655.094-29.207h-531.443c-68.252 0.097-123.554 55.4-123.651 123.642v741.914c0.097 68.252 55.4 123.554 123.642 123.651h741.914c68.252-0.097 123.554-55.4 123.651-123.642v-368.574zM123.651 925.889c-49.452 0-89.54-40.089-89.54-89.54v0-741.905c0.097-49.413 40.128-89.443 89.531-89.54h513.203l318.252 473.284v358.161c-0.097 49.413-40.128 89.443-89.531 89.54h-0.009zM288.917 226.622l187.608 488.293h69.245l200.229-488.293h-73.679l-56.965 147.869h-204.664l-52.53-147.869zM429.793 427.193h165.607l-51.166 135.249q-23.366 61.57-34.111 101.138c-7.287-36.122-16.353-67.322-27.682-97.413l1.417 4.291zM1131.789 227.816c2.899-2.047 4.093-3.241 4.093-4.434s-1.194-2.388-3.582-4.093l-12.791-9.039v-61.399c0-22.854 0-38.545 2.047-56.965v-2.729c0-5.799-1.535-7.504-10.574-11.086-2.374-1.218-5.132-2.115-8.042-2.541l-0.144-0.017c-2.558 0-2.899 2.047-2.899 5.458v20.466h-118.364v-68.221c0-31.211 0-61.911 1.706-80.33v-2.729c0-5.799-1.706-7.504-10.233-11.086-2.619-1.374-5.662-2.389-8.877-2.879l-0.162-0.020c-3.241 0-4.093 2.899-4.093 9.892v3.582c0 24.219 1.194 61.058 1.194 85.276v68.221h-117.852v-20.466c0-5.799 0-6.993-8.528-10.233-2.522-1.35-5.474-2.262-8.607-2.551l-0.091-0.007c-2.388 0-3.241 2.047-3.241 7.334v5.799c0 13.474 1.194 34.111 1.194 52.019v68.733c0 9.722 0 29.506-1.194 42.127l30.017-19.272h108.813v35.304c0 17.055-0.853 44.514-1.535 59.694l34.111-18.079c3.241-1.535 4.946-2.729 4.946-4.434s-1.706-2.899-4.434-4.946l-12.791-9.38v-58.159h108.983l13.815 20.807zM961.237 110.305v106.937h-115.976l-2.047-1.706v-105.231zM1100.067 110.305v106.937h-118.534v-106.937z" />
<glyph unicode="&#xe90f;" glyph-name="edit" horiz-adv-x="1084" d="M412.809-63.995c-24.472-0.36-44.61 19.057-44.997 43.385 0 23.929 20.167 43.385 44.997 43.385h626.429c24.775 0 44.942-19.402 44.942-43.385-0.386-24.306-20.492-43.715-44.942-43.385h-626.429zM44.921-48.905c-11.406-0.045-22.415 4.167-30.847 11.803-11.184 10.039-16.212 25.198-13.228 39.882 10.192 50.445 64.405 305.904 128.647 382.65l0.542 0.647c1.743 2.317 3.724 4.448 5.909 6.36 0.556 0.614 1.135 1.207 1.735 1.779l531.611 508.978c38.471 36.702 89.803 57.075 143.122 56.805 54.104 0 104.902-20.156 143.122-56.805l24.829-23.714c37.952-35.803 59.452-85.526 59.471-137.538 0-51.954-21.143-100.782-59.471-137.538l-83.596-79.979h-0.108v-0.054l-448.069-428.999c-0.576-0.561-1.172-1.1-1.789-1.617l-1.138-1.24c-1.451-1.378-3.010-2.64-4.662-3.773-77.091-61.978-334.493-124.496-385.453-136.46-3.483-0.813-7.048-1.229-10.626-1.24v0.054zM175.954 289.983c-25.588-57.451-52.424-152.898-71.995-235.949 83.271 21.989 179.065 51.307 237.398 77.608l-165.403 158.342zM413.948 184.35l387.351 370.793-183.89 176.127-387.351-370.847 183.89-176.073zM865.107 616.259l51.936 49.798c21.143 20.264 32.853 47.211 32.853 75.883s-11.656 55.619-32.853 75.937l-24.775 23.714c-21.452 20.457-50.075 31.805-79.801 31.636-29.744 0.177-58.387-11.17-79.855-31.636l-51.394-49.259 183.89-176.073zM614.644 80.927c-24.472-0.36-44.61 19.057-44.997 43.385 0 23.929 20.167 43.385 44.997 43.385h424.649c24.775 0 44.942-19.402 44.942-43.385-0.386-24.306-20.492-43.715-44.942-43.385h-424.649z" />
<glyph unicode="&#xe910;" glyph-name="rpassword" d="M250.634 523.097c-10.531-0.565-20.832 2.849-28.293 9.377s-11.362 15.542-10.717 24.756v150.185c2.386 138.625 130.24 250.497 288.668 252.585h23.406c158.428-2.088 286.282-113.96 288.668-252.585 0-18.851-17.465-34.133-39.009-34.133s-39.009 15.282-39.009 34.133c0.229 48.946-21.89 95.944-61.445 130.554s-93.267 53.965-149.205 53.764h-23.406c-55.938 0.201-109.651-19.154-149.205-53.764s-61.674-81.609-61.445-130.554v-150.185c0.646-9.214-3.256-18.228-10.717-24.756s-17.762-9.942-28.293-9.377v0zM827.971-63.992h-631.949c-51.883-0.442-101.788 17.397-138.476 49.499s-57.075 75.769-56.57 121.166v314.024c-0.505 45.397 19.882 89.064 56.57 121.166s86.593 49.941 138.476 49.499h631.949c51.883 0.442 101.788-17.397 138.476-49.499s57.075-75.769 56.57-121.166v-314.024c0.505-45.397-19.882-89.064-56.57-121.166s-86.593-49.941-138.476-49.499v0zM196.021 523.097c-63.974-1.367-115.466-46.422-117.028-102.399v-314.024c1.562-55.978 53.053-101.032 117.028-102.399h631.949c63.974 1.367 115.466 46.422 117.028 102.399v314.024c-1.562 55.978-53.053 101.032-117.028 102.399h-631.949zM437.878 345.605c-0.003-24.391 14.866-46.931 39.006-59.127s53.884-12.196 78.024 0c24.14 12.196 39.010 34.736 39.006 59.127 0.003 24.391-14.866 46.931-39.006 59.127s-53.884 12.196-78.024 0c-24.14-12.196-39.010-34.736-39.006-59.127v0zM515.897 113.5c-10.531-0.565-20.832 2.849-28.293 9.377s-11.362 15.542-10.717 24.756v136.532c-0.646 9.214 3.256 18.228 10.717 24.756s17.762 9.942 28.293 9.377c10.531 0.565 20.832-2.849 28.293-9.377s11.362-15.542 10.717-24.756v-136.532c-1.366-18.333-18.057-32.938-39.009-34.133v0z" />
<glyph unicode="&#xe911;" glyph-name="delete" horiz-adv-x="922" d="M896 857.6h-870.4c-14.138 0-25.6-11.462-25.6-25.6s11.462-25.6 25.6-25.6h870.4c14.138 0 25.6 11.462 25.6 25.6s-11.462 25.6-25.6 25.6v0zM691.405 960h-461.21c-14.138 0-25.6-11.462-25.6-25.6s11.462-25.6 25.6-25.6h461.21c14.138 0 25.6 11.462 25.6 25.6s-11.462 25.6-25.6 25.6zM768 755.2v-691.132c0.018-20.413-8.088-39.995-22.528-54.422s-34.029-22.516-54.442-22.48h-460.493c-42.454 0.056-76.861 34.448-76.937 76.902v691.132h-51.2v-691.132c0.094-70.718 57.419-128.012 128.137-128.068h460.493c33.995-0.045 66.612 13.434 90.656 37.466s37.542 56.641 37.514 90.636v691.098h-51.2zM358.4 652.8c-6.768 0.045-13.275-2.609-18.080-7.375s-7.511-11.252-7.52-18.020v-461.21c0-14.138 11.462-25.6 25.6-25.6s25.6 11.462 25.6 25.6v461.21c-0.149 14.043-11.556 25.359-25.6 25.395zM358.4 652.8c-6.768 0.045-13.275-2.609-18.080-7.375s-7.511-11.252-7.52-18.020v-461.21c0-14.138 11.462-25.6 25.6-25.6s25.6 11.462 25.6 25.6v461.21c-0.149 14.043-11.556 25.359-25.6 25.395zM563.2 652.8c-6.768 0.045-13.275-2.609-18.080-7.375s-7.511-11.252-7.52-18.020v-461.21c0-14.138 11.462-25.6 25.6-25.6s25.6 11.462 25.6 25.6v461.21c-0.149 14.043-11.556 25.359-25.6 25.395v0zM563.2 652.8c-6.768 0.045-13.275-2.609-18.080-7.375s-7.511-11.252-7.52-18.020v-461.21c0-14.138 11.462-25.6 25.6-25.6s25.6 11.462 25.6 25.6v461.21c-0.149 14.043-11.556 25.359-25.6 25.395v0z" />
<glyph unicode="&#xe912;" glyph-name="English" horiz-adv-x="994" d="M563.978 108.38h-457.526c-58.759 0.084-106.369 47.694-106.453 106.445v638.723c0.084 58.759 47.694 106.369 106.445 106.453h638.723c58.759-0.084 106.369-47.694 106.453-106.445v-317.31zM106.453 930.634c-42.574 0-77.086-34.513-77.086-77.086v0-638.715c0.083-42.54 34.546-77.003 77.078-77.086h441.823l273.987 407.456v308.345c-0.083 42.54-34.546 77.003-77.078 77.086h-0.008zM266.058 750.619h56.383v-421.993h-56.383v421.993zM279.42 380.605h302.178v-51.978h-302.178v51.978zM267.673 750.619h302.178v-51.978h-302.178v51.978zM267.526 572.513h287.202v-51.978h-287.202v51.978zM916.96 392.792h41.113v-313.778h-42.581l-165.919 249.613-1.028-249.613h-41.847v313.778h48.454l161.808-243.299z" />
<glyph unicode="&#xe922;" glyph-name="calendar" horiz-adv-x="960" d="M808.090-64l-670.54 0.686c-77.023 7.773-137.55 76.931-137.55 155.006v623.339c0 94.993 53.525 179.354 137.431 179.354h686.087c83.788 0 136.482-84.362 136.482-175.811v-623.339c0-86.762-68.241-159.236-151.91-159.236zM137.312 828.313c-49.608 0-68.597-40.466-68.597-99.108v-627.797c0-46.982 33.586-99.565 83.194-99.565h656.18c49.608 0 84.025 49.040 84.025 99.565v627.797c0 55.212-18.989 99.108-68.597 99.108h-686.206zM651.67 729.32c-21.718 0-34.18 19.090-34.18 42.524v145.633c0 23.548 12.343 42.524 34.18 42.524 21.718 0 34.18-19.090 34.18-42.524v-145.633c-0.119-23.434-12.461-42.524-34.18-42.524zM308.923 729.32c-22.074 0-34.654 19.090-34.654 42.524v145.633c0 23.548 12.58 42.524 34.654 42.524s34.654-19.090 34.654-42.524v-145.633c0-23.434-12.461-42.524-34.654-42.524zM502.727 167.937h-44.149c-25.516 0-46.285 19.662-46.285 49.268 0 29.492 20.769 49.268 46.285 49.268h44.149c25.516 0 46.285-19.662 46.285-49.268s-20.769-49.268-46.285-49.268zM891.997 596.948h-823.281c-22.787 0-34.298 8.802-34.298 33.036s11.512 33.036 34.298 33.036h823.4c22.786 0 34.298-8.802 34.298-33.036s-11.512-33.036-34.417-33.036v0zM296.699 332.546h-44.149c-25.516 0-46.285 20.462-46.285 51.097s20.769 48.125 46.285 48.125h44.149c25.516 0 46.285-17.375 46.285-48.125-0.119-30.75-20.769-51.097-46.285-51.097zM502.727 332.546h-44.149c-25.516 0-46.285 20.462-46.285 51.097s20.769 48.125 46.285 48.125h44.149c25.516 0 46.285-17.375 46.285-48.125s-20.769-51.097-46.285-51.097zM708.636 332.546h-44.505c-25.753 0-46.641 20.462-46.641 51.097s20.888 48.125 46.641 48.125h44.505c25.753 0 46.641-17.375 46.641-48.125s-20.888-51.097-46.641-51.097zM296.699 167.937h-44.149c-25.516 0-46.285 19.662-46.285 49.268 0 29.492 20.769 49.268 46.285 49.268h44.149c25.516 0 46.285-19.662 46.285-49.268-0.119-29.607-20.769-49.268-46.285-49.268zM708.636 167.937h-44.505c-25.753 0-46.641 19.662-46.641 49.268 0 29.492 20.888 49.268 46.641 49.268h44.505c25.753 0 46.641-19.662 46.641-49.268s-20.888-49.268-46.641-49.268z" />
<glyph unicode="&#xe923;" glyph-name="cash" d="M136.533 960h750.933c75.405 0 136.533-61.128 136.533-136.533v-750.933c0-75.405-61.128-136.533-136.533-136.533h-750.933c-75.405 0-136.533 61.128-136.533 136.533v750.933c0 75.405 61.128 136.533 136.533 136.533zM534.539 453.814c-38.632 12.345-65.377 25.328-80.007 38.95-14.858 13.622-22.173 31.501-22.173 53.636 0 24.264 7.086 43.42 21.488 57.468s35.889 21.071 64.691 21.071c27.431 0 48.69-9.578 64.234-28.734 15.316-19.156 23.088-44.059 23.088-75.134h71.778c0 45.761-11.201 82.157-33.832 109.401s-54.405 43.42-95.551 48.954v75.772h-57.834v-75.559c-40.461-4.683-72.464-18.943-95.551-42.569s-34.746-54.275-34.746-91.735c0-38.737 12.573-69.6 37.718-92.8s62.406-41.717 111.781-55.552c35.66-11.281 61.263-24.264 77.035-38.95 15.544-14.473 23.545-31.926 23.545-52.147 0-24.69-8.915-44.271-26.517-58.106-17.83-14.048-42.289-21.071-73.835-21.071-27.66 0-50.976 7.45-69.721 22.349-18.973 14.899-28.345 39.802-28.345 74.921h-69.721l-0.686-1.703c-0.914-47.251 11.887-83.222 38.861-107.699s61.263-38.737 103.324-42.781v-65.13h57.605v65.556c43.89 4.257 78.636 18.092 103.781 41.079s37.718 54.275 37.718 93.225c0 38.525-12.115 68.961-36.346 91.31-24.688 22.349-61.72 40.866-111.781 55.978z" />
<glyph unicode="&#xe926;" glyph-name="meal" horiz-adv-x="964" d="M278.903 960c0 0-27.89-30.897-30.989-101.517v-26.483c0 0 3.099-17.655 9.297-26.483 0 0 15.495-17.655 27.89-70.621 0 0 6.198-52.966-9.297-70.621 0 0 27.89 22.069 34.088 88.276v13.241c0 0-3.099 26.483-24.791 57.379 0 0-9.297 13.241-12.396 52.966 3.099 4.414 0 44.138 6.198 83.862v0zM486.531 960c0 0-27.89-30.897-30.989-101.517v-26.483c0 0 3.099-17.655 9.297-26.483 0 0 15.495-17.655 27.89-70.621 0 0 6.198-52.966-9.297-70.621 0 0 27.89 22.069 34.088 88.276v13.241c0 0-3.099 26.483-24.791 57.379 0 0-9.297 13.241-12.396 52.966 3.099 4.414 0 44.138 6.198 83.862zM694.159 960c0 0-27.89-30.897-30.989-101.517v-26.483c0 0 3.099-17.655 9.297-26.483 0 0 15.495-17.655 27.89-70.621 0 0 6.198-52.966-9.297-70.621 0 0 27.89 22.069 34.088 88.276v13.241c0 0-3.099 26.483-24.791 57.379 0 0-9.297 13.241-12.396 52.966 0 4.414-3.099 44.138 6.198 83.862v0zM43.385 386.207h876.995c0 0 0 114.759-170.441 141.241 0 0-80.572 4.414-89.869-4.414 0 0-34.088 75.034-182.836 83.862 0 0-114.66 8.828-185.935-83.862 0 0-80.572 17.655-170.441-30.897-3.099 8.828-74.374-26.483-77.473-105.931zM0 355.31c0 0 0-158.897 123.957-247.172 0 0 111.561-57.379 117.759-61.793s99.166-44.138 102.264-110.345h275.804c0 0-12.396 66.207 176.639 145.655 0 0 148.748 48.552 167.342 264.828v8.828l-71.275-57.379h24.791c0 0-27.89-132.414-167.342-180.966 0 0-130.155-57.379-158.045-128h-220.023c0 0-27.89 70.621-133.254 114.759 0 0-65.077 35.31-80.572 39.724 0 0-80.572 44.138-111.561 154.483h864.599l52.682 57.379h-963.765z" />
<glyph unicode="&#xe927;" glyph-name="meal-t-take" horiz-adv-x="1041" d="M951.756-52.868c-13.157 0.187-25.803 2.024-37.851 5.312l1.061-0.247-171.873 2.004 8.182 9.128c1.781 2.004 42.801 50.092-26.104 119.387l-3.451 3.451 3.006 3.84c0.278 0.445 32.003 42.133 23.543 85.213-4.675 23.933-20.927 44.137-48.311 60.055l-2.505 1.447v2.95c0 1.28-11.744 129.684-123.172 180.611l-0.835 0.334-0.668 0.668c-2.115 1.948-210.778 200.37-140.147 405.415 1.002 2.338 87.049 197.030 296.937 111.316 2.171-0.946 192.967-91.613 80.037-352.038l-0.445-0.779c-3.451-5.566-83.487-128.014-116.437-162.411 0-7.124 1.558-31.837 18.423-49.202 12.634-13.024 31.28-19.48 55.38-18.812 3.173 0 268.996-21.206 271.612-238.273 1.336-8.404 16.030-106.697-31.169-149.888-13.729-12.142-31.885-19.556-51.773-19.556-1.21 0-2.413 0.027-3.61 0.082l0.17-0.006zM765.69-34.946l151.446-1.892c35.733-9.295 63.339-5.288 82.096 11.855 43.803 40.13 27.829 139.146 27.829 140.314v0.891c-2.115 207.16-258.143 227.42-260.759 227.642-26.883-0.612-48.311 6.902-63.172 22.263-23.154 23.933-21.54 58.052-21.428 59.499v2.115l1.503 1.503c30 30.111 111.316 153.895 116.326 161.854 44.527 103.469 46.141 194.47 3.952 263.152-19.361 31.287-46.011 56.368-77.666 73.325l-1.091 0.534c-83.487 34.063-156.678 26.772-216.733-21.762-27.263-22.574-49.323-50.401-64.81-82.032l-0.644-1.455c-66.178-192.077 124.229-380.535 136.808-392.724 107.031-49.48 125.955-166.474 128.404-186.511 28.831-17.421 46.029-39.629 51.206-66.178 7.903-40.408-14.582-77.922-22.82-90.111 54.823-57.495 39.74-103.469 29.332-122.225zM653.205 92.678h-605.116c-0.083-0.001-0.182-0.001-0.28-0.001-26.249 0-47.557 21.153-47.808 47.342v13.716c0 26.104 37.569 46.029 49.425 51.651 8.293 20.26 42.412 98.404 86.994 128.849 57.272 38.961 133.58 60.612 214.229 60.612s156.901-21.54 214.229-60.612c44.527-30.445 78.701-108.589 86.994-128.849 11.855-5.566 49.425-25.491 49.425-51.651v-13.692c-0.251-26.213-21.56-47.366-47.808-47.366-0.099 0-0.197 0-0.296 0.001h0.015zM350.647 383.715c-78.645 0-152.504-20.816-207.995-58.664-43.58-29.777-77.421-110.092-83.487-125.843l-0.835-2.115-2.059-0.891c-15.751-7.069-45.139-24.991-45.139-42.467v-13.692c0.219-20.059 16.531-36.235 36.621-36.235 0.118 0 0.236 0.001 0.354 0.002h605.098c0.1-0.001 0.218-0.002 0.336-0.002 20.090 0 36.402 16.176 36.621 36.214v13.713c0 17.532-29.388 35.454-44.916 42.467l-2.059 0.891-0.835 2.115c-6.345 15.751-40.185 96.066-83.487 125.843-55.714 37.848-129.572 58.664-208.217 58.664zM648.307-64h-578.846c-32.302 0.408-58.331 26.689-58.331 59.049 0 0.139 0 0.277 0.001 0.415v-0.021 15.362c-0.001 0.116-0.001 0.254-0.001 0.392 0 32.439 26.155 58.768 58.527 59.051h578.873c32.302-0.408 58.331-26.689 58.331-59.049 0-0.139 0-0.277-0.001-0.415v0.021-15.362c0.001-0.116 0.001-0.254 0.001-0.392 0-32.439-26.155-58.768-58.527-59.051h-0.027zM69.461 59.116c-26.154-0.407-47.2-21.704-47.2-47.916 0-0.139 0.001-0.278 0.002-0.416v0.021-15.362c-0.001-0.117-0.002-0.254-0.002-0.392 0-26.291 21.172-47.637 47.396-47.919h578.873c26.251 0.282 47.422 21.628 47.422 47.919 0 0.138-0.001 0.276-0.002 0.413v-0.021 15.362c0.001 0.117 0.002 0.254 0.002 0.392 0 26.291-21.172 47.637-47.396 47.919h-0.027zM384.042 380.431v44.527l11.132 1.614 12.746-42.857zM316.64 405.811l-10.519 2.505v20.148c0 0.022 0 0.048 0 0.074 0 18.305 10.977 34.046 26.708 41l0.286 0.113c1.751 0.761 3.916 1.521 6.141 2.138l0.371 0.088 11.855 3.006zM328.384 453.343c-6.026-5.311-10.109-12.705-11.116-21.046l-0.016-0.16zM377.307 449.058l-1.058 1.28c-2.809 3.287-6.189 5.992-10.001 7.983l-0.184 0.088-7.458 3.896 20.816 17.254 7.625-25.547zM384.042 388.112c-2.47 0.742-5.308 1.169-8.246 1.169-0.036 0-0.072 0-0.109 0h-50.086c-0.031 0-0.067 0-0.103 0-2.938 0-5.776-0.427-8.456-1.222l0.21 0.053v40.519c0 18.444 14.951 33.395 33.395 33.395s33.395-14.951 33.395-33.395v0z" />
<glyph unicode="&#xe92d;" glyph-name="reduce-b" d="M704 416h-384c-17.6 0-32 14.4-32 32s14.4 32 32 32h384c17.6 0 32-14.4 32-32s-14.4-32-32-32zM512 0c-246.4 0-448 201.6-448 448s201.6 448 448 448 448-201.6 448-448-201.6-448-448-448zM512 832c-211.2 0-384-172.8-384-384s172.8-384 384-384 384 172.8 384 384-172.8 384-384 384z" />
<glyph unicode="&#xe92e;" glyph-name="remmcond" horiz-adv-x="964" d="M469.166 666.368c19.561 0 36.443-14.663 41.056-35.656l2.783-12.094c3.088-17.918 4.646-36.068 4.657-54.253 0-44.592-4.225-78.959-12.923-105.060l-22.748-68.28 71.619-0.303c69.122-0.293 174.249-0.792 184.38-0.986 18.109-0.776 25.244-6.993 31.412-17.403 6.298-10.66 7.372-21.31 7.047-28.796-4.697-29.298-62.688-292.216-72.42-331.816-3.589-6.251-8.43-11.516-14.083-15.305-9.748-6.489-10.388-6.489-14.818-6.489l-419.543-0.024 0.582 382.684c101.412 31.892 175.191 126.247 178.111 235.668l0.078 2.861-0.156 1.895 0.024 1.117 0.073 4.473c0.010 23.009 10.923 47.767 34.869 47.767h0.001zM121.332 360.672v-370.969h-69.564v370.969h69.564zM469.165 718.422c-51.974 0-86.628-45.296-86.628-99.815 0-3.072-0.243-6.011 0-8.951-2.721-101.95-82.798-183.907-178.067-195.148l-0.729-476.654h9.301c-0.014 0.015 0.097 0.024 0.432 0.024 0.351 0 0.457-0.009 0.442-0.024l461.509 0.024c17.41 0 27.24 4.586 43.095 15.138 15.113 10.132 26.545 23.99 33.995 39.655 2.064 3.145 73.662 326.592 75.494 345.788 1.433 20.469-2.987 41.643-14.098 60.452-17.522 29.572-42.975 41.521-73.769 42.83-1.598 0.249-186.313 1.030-186.313 1.030 12.228 36.716 15.603 80.473 15.603 121.594-0.011 26.095-2.76 52.117-8.202 77.632l-0.457-0.049c-9.629 43.806-46.952 76.474-91.606 76.474h-0.001zM136.699 412.721h-100.3c-20.114 0-36.398-16.896-36.398-37.722v-399.628c0-20.821 16.284-37.721 36.398-37.721h100.3c20.116 0 36.399 16.896 36.399 37.721v399.624c0 20.831-16.279 37.726-36.399 37.726v0.001zM216.755-63.662h-3.307c0.035-0.058 0.329-0.111 0.697-0.187-0.276-0.111-0.258-0.151 0-0.151 0.313 0.007 0.626 0.027 0.937 0.058 0.329-0.031 0.659-0.050 0.99-0.058 0.298 0 0.333 0.058 0 0.151 0.235 0.033 0.464 0.096 0.683 0.187v0zM963.019 823.755c-1.635 5.064-5.766 8.913-10.912 10.167l-105.629 25.739-56.987 93.052c-2.779 4.529-7.693 7.287-12.986 7.287s-10.207-2.758-12.986-7.287l-56.985-93.052-105.628-25.743c-5.148-1.252-9.281-5.1-10.917-10.165s-0.543-10.62 2.89-14.676l70.404-83.252-8.295-108.962c-0.395-5.307 1.97-10.441 6.252-13.569s9.869-3.803 14.766-1.785l100.5 41.606 100.5-41.604c4.897-2.019 10.484-1.347 14.768 1.777 4.284 3.128 6.646 8.267 6.24 13.575l-8.289 108.962 70.404 83.251c3.434 4.056 4.528 9.614 2.89 14.679h0.002z" />
<glyph unicode="&#xe92f;" glyph-name="rice" horiz-adv-x="964" d="M929.345 513.346h-37.002c1.613 4.172 2.582 8.796 2.582 13.644 0 38.339-5.163 77.243-15.274 115.808-5.055 19.17-24.202 30.333-42.38 25.146-18.286-5.3-29.042-25.259-23.987-44.429 8.497-32.25 12.8-64.726 12.8-96.525 0-4.849 0.968-9.472 2.582-13.644h-693.674c1.613 4.172 2.582 8.796 2.582 13.644 0 199.027 154.353 360.841 344.202 360.841 56.363 0 110.36-13.983 160.269-41.61 16.78-9.359 37.647-2.481 46.467 15.11s2.366 39.467-14.413 48.714c-59.16 32.701-125.634 49.954-192.43 49.954-227.711 0-413.042-194.29-413.042-433.010 0-4.849 0.968-9.472 2.582-13.644h-36.787c-19.039 0-34.42-16.125-34.42-36.084 0-174.331 84.437-334.117 225.882-427.484 5.486-3.608 11.832-5.525 18.286-5.525h475.429c6.454 0 12.8 1.917 18.286 5.525 141.445 93.368 225.882 253.040 225.882 427.484 0 19.959-15.489 36.084-34.42 36.084zM709.378 116.421h-455.099c-106.703 73.972-173.714 192.937-184.040 324.757h823.287c-10.434-131.82-77.445-250.785-184.148-324.757v0zM700.666 8.168h-413.042c-19.039 0-34.42-16.125-34.42-36.084s15.382-36.084 34.42-36.084h413.042c19.039 0 34.42 16.125 34.42 36.084s-15.382 36.084-34.42 36.084zM727.37 770.37c0-20.324 10.398-39.105 27.276-49.267s37.674-10.162 54.553 0c16.879 10.162 27.276 28.943 27.276 49.267 0 31.419-24.424 56.889-54.553 56.889s-54.553-25.47-54.553-56.889v0z" />
<glyph unicode="&#xe930;" glyph-name="shopcart" horiz-adv-x="1062" d="M356.295 148.764c13.635 0 26.552-2.655 38.751-7.964s22.964-12.705 32.293-22.187c9.329-9.481 16.505-20.67 21.528-33.564s7.535-26.548 7.535-40.96c0-14.412-2.512-28.065-7.535-40.96s-12.199-24.083-21.528-33.564c-9.329-9.481-20.093-17.067-32.293-22.756s-25.116-8.533-38.751-8.533c-14.352 0-27.449 2.844-39.289 8.533s-22.425 13.274-31.754 22.756c-9.329 9.481-16.505 20.67-21.528 33.564s-7.535 26.548-7.535 40.96c0 14.412 2.512 28.065 7.535 40.96s12.199 24.083 21.528 33.564c9.329 9.481 19.914 16.877 31.754 22.187s24.937 7.964 39.289 7.964zM804.085 146.489c13.635 0 26.731-2.655 39.289-7.964s23.322-12.705 32.293-22.187c8.97-9.481 16.146-20.67 21.528-33.564s8.073-26.548 8.073-40.96c0-14.412-2.691-28.065-8.073-40.96s-12.558-24.083-21.528-33.564c-8.97-9.481-19.734-17.067-32.293-22.756s-25.655-8.533-39.289-8.533c-13.635 0-26.552 2.844-38.751 8.533s-22.784 13.274-31.754 22.756c-8.97 9.481-16.146 20.67-21.528 33.564s-8.073 26.548-8.073 40.96c0 14.412 2.691 28.065 8.073 40.96s12.558 24.083 21.528 33.564c8.97 9.481 19.555 16.877 31.754 22.187s25.116 7.964 38.751 7.964zM984.924 792.747c20.093 0 35.701-2.844 46.824-8.533s19.017-12.705 23.681-21.049c4.664-8.344 6.817-17.256 6.459-26.738s-1.615-17.636-3.767-24.462c-2.153-6.827-6.638-20.859-13.455-42.098s-14.532-44.563-23.143-69.973c-8.611-25.41-17.043-50.631-25.296-75.662s-14.532-44.753-18.837-59.164c-9.329-30.341-21.17-51.39-35.522-63.147s-31.934-17.636-52.745-17.636h-565.12l16.146-102.4h542.515c34.445 0 51.668-15.55 51.668-46.649 0-15.17-3.409-28.255-10.226-39.253s-20.273-16.498-40.366-16.498h-564.044c-14.352 0-26.372 3.413-36.060 10.24s-17.761 15.739-24.219 26.738c-6.459 10.999-11.661 22.945-15.608 35.84s-6.997 25.031-9.15 36.409c-0.718 4.551-2.691 15.55-5.92 32.996s-7.176 39.253-11.841 65.422c-4.664 26.169-9.867 55.372-15.608 87.609s-11.482 64.664-17.223 97.28c-13.635 76.61-29.063 161.944-46.286 256h-80.731c-10.764 0-19.734 2.844-26.91 8.533s-13.096 12.516-17.761 20.48c-4.664 7.964-7.894 16.498-9.688 25.6s-2.691 17.446-2.691 25.031c0 15.17 4.844 27.686 14.532 37.547s22.784 14.791 39.289 14.791h108.718c14.352 0 25.834-2.276 34.445-6.827s15.429-10.24 20.452-17.067c5.023-6.827 8.611-14.033 10.764-21.618s3.947-14.033 5.382-19.342c1.435-6.068 2.87-14.601 4.306-25.6s2.87-22.187 4.306-33.564c2.153-13.653 4.306-28.065 6.459-43.236h736.271z" />
<glyph unicode="&#xe935;" glyph-name="check1" horiz-adv-x="967" d="M682.667 106.667c3.87 0.524 7.095 1.573 10.965 2.097 9.675 2.622 17.415 7.341 24.51 12.584 75.465 60.821 151.575 122.167 227.685 182.988 8.385 6.816 16.125 13.632 19.35 23.070 0.645 2.097 1.29 4.195 1.935 6.816v-227.556h-284.444zM0 41.809v811.793c4.994 12.932 8.878 25.865 14.426 38.209 17.755 37.621 49.382 56.432 86.002 68.188h766.254c25.523-8.817 52.156-18.223 68.247-41.736 13.316-19.398 21.639-42.912 32.182-64.073v-811.793c-5.549-14.108-9.433-28.216-16.091-41.736-17.755-35.858-48.827-53.493-83.783-64.661h-766.809c-24.968 8.817-51.047 17.047-66.583 40.56-13.871 19.986-22.749 43.499-33.846 65.249v0zM412.812 328.083c-46.608 49.966-92.106 98.755-137.049 146.958-14.426 15.284-30.517 24.101-51.047 19.986s-34.401-16.459-41.059-37.621c-7.768-23.513-1.11-43.499 14.981-60.546 56.040-59.371 112.081-118.742 168.676-178.113 34.401-36.445 60.479-36.445 94.88 0 119.294 126.383 239.142 252.179 358.436 378.563 4.994 5.29 10.542 10.581 14.426 16.459 23.304 32.918 7.213 78.769-30.517 88.175-22.749 5.878-39.95-4.115-56.040-21.162-105.977-112.276-212.509-224.551-319.041-337.414-4.994-3.527-9.987-8.23-16.646-15.284v0z" />
<glyph unicode="&#xe936;" glyph-name="code" horiz-adv-x="1082" d="M720.297-63.824c-5.633-0.017-11.040 2.262-15.024 6.333s-6.214 9.597-6.197 15.353c-0.018 5.757 2.213 11.284 6.196 15.354s9.391 6.35 15.025 6.332h220.318c32.326 0 58.683 26.937 58.683 59.975v204.152c0 11.865 9.45 21.686 21.221 21.686 11.604 0 21.221-9.656 21.221-21.686v-204.325c0-56.924-45.422-103.345-101.123-103.345l-220.319 0.17zM141.244-63.824c-55.703 0-101.125 46.421-101.125 103.348v204.151c0 11.86 9.45 21.687 21.221 21.687 11.606 0 21.221-9.658 21.221-21.687v-204.324c0-33.040 26.358-59.976 58.851-59.976h227.777c5.633 0.017 11.041-2.263 15.024-6.334s6.213-9.598 6.196-15.355c0-11.859-9.45-21.686-21.221-21.686l-227.944 0.176zM21.221 426.314c-11.604 0-21.221 9.657-21.221 21.686 0 11.859 9.449 21.686 21.221 21.686h1039.249c11.604 0 21.221-9.657 21.221-21.686 0-11.861-9.449-21.686-21.221-21.686h-1039.249zM1020.685 630.637c-5.634-0.018-11.042 2.261-15.025 6.333s-6.213 9.598-6.195 15.356v204.153c0 33.208-26.358 60.147-58.686 60.147h-220.481c-5.633-0.017-11.040 2.262-15.024 6.333s-6.214 9.597-6.197 15.353c0 11.859 9.45 21.688 21.221 21.688h220.318c55.7 0 101.122-46.423 101.122-103.35v-204.321c0-12.031-9.448-21.689-21.055-21.689l0.002-0.002zM61.339 630.637c-11.606 0-21.221 9.659-21.221 21.688v204.153c0 56.927 45.422 103.352 101.123 103.352h227.775c5.634 0.017 11.041-2.262 15.025-6.333s6.213-9.598 6.196-15.355c0-11.861-9.45-21.686-21.221-21.686h-227.775c-32.492 0-58.85-26.939-58.85-60.147v-204.323c0-11.69-9.451-21.347-21.055-21.347l0.002-0.002zM487.465 777.409h-236.068c-16.275 0-29.516-13.52-29.516-30.141v-241.077c0-16.62 13.241-30.141 29.516-30.141h236.069c16.274 0 29.515 13.521 29.515 30.141v241.079c0 16.619-13.241 30.139-29.515 30.139h-0.001zM491.274 506.191c-0.004-2.149-1.709-3.89-3.812-3.891h-236.064c-2.103 0.001-3.809 1.741-3.814 3.89v241.081c0.004 2.149 1.71 3.89 3.813 3.891h236.069c2.103-0.002 3.808-1.743 3.812-3.892v-241.079h-0.004zM406.19 685.972h-84.189c-10.548 0-19.127-8.224-19.127-18.33v-80.68c0-10.108 8.581-18.333 19.127-18.333h84.187c10.549 0 19.133 8.224 19.133 18.333v80.68c0 10.106-8.581 18.33-19.131 18.33zM398.951 593.901h-69.706v66.799h69.706v-66.799zM406.189 341.793h-84.188c-10.548 0-19.127-8.225-19.127-18.335v-80.679c0-10.106 8.581-18.329 19.127-18.329h84.187c10.549 0 19.133 8.223 19.133 18.329v80.677c0 10.11-8.581 18.333-19.131 18.333l-0.001 0.004zM398.951 249.722h-69.706v66.799h69.706v-66.799zM675.496 568.628h84.188c10.549 0 19.133 8.225 19.133 18.334v80.68c0 10.106-8.582 18.33-19.131 18.33h-84.19c-10.545 0-19.126-8.224-19.126-18.33v-80.68c0-10.108 8.581-18.333 19.126-18.333v-0.001zM682.741 660.7h69.704v-66.799h-69.704v66.799zM485.728 437.186h-239.452c-16.508 0-29.939-13.314-29.939-29.68v-237.382c0-16.365 13.43-29.679 29.939-29.679h239.453c16.507 0 29.938 13.314 29.938 29.679v237.384c0 16.364-13.43 29.678-29.938 29.678h-0.001zM489.593 170.124c-0.004-2.116-1.733-3.83-3.866-3.832h-239.448c-2.134 0.001-3.864 1.715-3.868 3.832v237.384c0.005 2.116 1.734 3.829 3.867 3.831h239.453c2.133-0.002 3.863-1.716 3.866-3.833v-237.382h-0.004zM597.244 436.243c-16.507 0-29.938-13.315-29.938-29.682v-136.566c0.001-3.429 1.376-6.717 3.82-9.14s5.76-3.784 9.216-3.783c7.197-0.002 13.033 5.784 13.036 12.924v136.566c0.002 2.117 1.731 3.833 3.865 3.836h144.963c3.457-0.002 6.772 1.359 9.217 3.783s3.819 5.712 3.82 9.141c-0.004 7.14-5.841 12.925-13.038 12.922h-144.963zM595.763 490.192h239.455c16.508 0 29.938 13.314 29.938 29.679v237.382c0 16.364-13.429 29.677-29.938 29.677h-239.455c-16.507 0-29.936-13.313-29.936-29.679v-237.381c0-16.365 13.428-29.679 29.936-29.679v0.001zM591.897 757.252c0.003 2.117 1.732 3.832 3.866 3.834h239.455c2.133-0.002 3.863-1.716 3.866-3.833v-237.383c-0.004-2.116-1.734-3.829-3.866-3.831h-239.455c-2.132 0.002-3.861 1.715-3.866 3.831v237.382zM865.352 423.322c-0.004 7.14-5.841 12.925-13.038 12.922h-47.774c-7.196 0.002-13.032-5.783-13.036-12.922 0.001-3.429 1.375-6.717 3.819-9.141s5.76-3.785 9.216-3.784h34.739v-49.82h-108.375c-7.196 0.002-13.032-5.783-13.036-12.922 0.001-3.429 1.375-6.717 3.819-9.141s5.76-3.785 9.216-3.784h121.409c3.457-0.002 6.773 1.359 9.218 3.784s3.819 5.713 3.82 9.142c0 0.053-0.009 0.106-0.009 0.159s0.009 0.106 0.009 0.16v75.349zM625.095 165.869h-31.717v35.987c-0.001 3.429-1.375 6.717-3.82 9.141s-5.76 3.785-9.216 3.784c-3.456 0.001-6.771-1.36-9.216-3.784s-3.819-5.712-3.82-9.141v-48.911c0.003-7.14 5.839-12.926 13.036-12.924h44.753c3.456-0.001 6.771 1.36 9.216 3.784s3.819 5.712 3.82 9.141c-0.004 7.139-5.84 12.924-13.036 12.922v0.001zM769.364 266.046c-0.001 3.429-1.375 6.718-3.82 9.142s-5.76 3.785-9.217 3.784h-82.361c-3.457 0.001-6.772-1.36-9.217-3.784s-3.819-5.712-3.82-9.142v-114.372c0.004-7.139 5.84-12.924 13.037-12.922 7.197-0.002 13.033 5.783 13.036 12.923v101.448h69.324c3.457-0.001 6.772 1.36 9.217 3.784s3.819 5.712 3.82 9.142l0.001-0.003zM852.176 313.009c-3.457 0.001-6.772-1.36-9.217-3.784s-3.819-5.713-3.819-9.142v-136.32h-117.977c-7.197 0.002-13.033-5.784-13.036-12.924 0.003-7.14 5.839-12.926 13.036-12.924h131.014c7.197-0.002 13.032 5.784 13.035 12.924v149.246c-0.001 3.429-1.375 6.717-3.82 9.141s-5.76 3.785-9.216 3.783v0.001zM627.379 397.521c-5.736 0.001-11.238-1.735-15.295-4.826s-6.337-7.285-6.338-11.658v-53.57c0.005-9.105 9.69-16.484 21.633-16.481 5.736-0.002 11.237 1.734 15.295 4.825s6.338 7.284 6.34 11.657v53.57c-0.002 4.373-2.282 8.567-6.339 11.658s-9.559 4.827-15.295 4.825v0z" />
<glyph unicode="&#xe938;" d="M1024 448c0-282.77-229.23-512-512-512s-512 229.23-512 512c0 282.77 229.23 512 512 512s512-229.23 512-512z" />
<glyph unicode="&#xe939;" d="M960 441.6c0-243.889-197.711-441.6-441.6-441.6s-441.6 197.711-441.6 441.6c0 243.889 197.711 441.6 441.6 441.6s441.6-197.711 441.6-441.6z" />
<glyph unicode="&#xe93a;" d="M424.178 217.6h-89.149c-22.411 0-40.584 19.391-40.584 43.197v75.547c0 6.72 5.141 12.191 11.454 12.191s11.454-5.472 11.454-12.191v-75.547c0-10.367 7.936-18.863 17.722-18.863h89.194c6.313 0 11.454-5.472 11.454-12.191s-5.186-12.143-11.544-12.143v0zM701.771 217.6h-88.067c-6.313 0-11.454 5.472-11.454 12.191s5.141 12.191 11.454 12.191h88.067c9.74 0 17.722 8.447 17.722 18.863v77.082c0 6.72 5.141 12.191 11.454 12.191s11.454-5.472 11.454-12.191v-77.13c-0.045-23.806-18.263-43.197-40.629-43.197v0zM730.901 536.345c-6.313 0-11.454 5.472-11.454 12.191v73.819c0 10.367-7.936 18.863-17.722 18.863h-89.149c-6.313 0-11.454 5.472-11.454 12.191s5.141 12.191 11.454 12.191h89.194c22.411 0 40.584-19.391 40.584-43.197v-73.771c0-6.816-5.096-12.287-11.454-12.287zM305.854 534.617c-6.313 0-11.454 5.472-11.454 12.191v75.547c0 23.854 18.218 43.197 40.584 43.197h89.78c6.313 0 11.454-5.472 11.454-12.191s-5.141-12.191-11.454-12.191h-89.735c-9.74 0-17.722-8.447-17.722-18.863v-75.499c0-6.72-5.096-12.191-11.454-12.191zM685.853 429.361h-334.906c-6.313 0-11.454 5.472-11.454 12.191s5.141 12.191 11.454 12.191h334.906c6.313 0 11.454-5.472 11.454-12.191s-5.141-12.191-11.454-12.191z" />
<glyph unicode="&#xe942;" d="M798.72-58.149h-585.143c-67.291 0-122.88 64.366-122.88 146.286v415.451c0 8.777 5.851 14.629 14.629 14.629h356.937c8.777 0 14.629-5.851 14.629-14.629s-5.851-14.629-14.629-14.629h-342.309v-403.749c0-64.366 43.886-117.029 93.623-117.029h582.217c52.663 0 93.623 52.663 93.623 117.029v403.749h-245.76c-8.777 0-14.629 5.851-14.629 14.629s5.851 14.629 14.629 14.629h263.314c8.777 0 14.629-5.851 14.629-14.629v-418.377c0-78.994-55.589-143.36-122.88-143.36z" />
<glyph unicode="&#xe943;" d="M152.137 488.96c-5.851 0-14.629 5.851-14.629 11.703s-2.926 14.629-2.926 20.48c0 76.069 64.366 134.583 143.36 134.583 11.703 0 26.331-2.926 38.034-5.851 14.629 76.069 87.771 134.583 172.617 134.583s157.989-58.514 172.617-137.509c14.629 2.926 32.183 5.851 46.811 5.851 102.4 0 175.543-58.514 175.543-146.286 0-8.777-5.851-14.629-14.629-14.629s-14.629 5.851-14.629 14.629c0 78.994-73.143 117.029-146.286 117.029-17.554 0-38.034-2.926-55.589-8.777-2.926-2.926-8.777 0-14.629 0-2.926 2.926-5.851 5.851-5.851 11.703-2.926 70.217-67.291 128.731-146.286 128.731-76.069 0-140.434-55.589-146.286-125.806 0-5.851-2.926-8.777-5.851-11.703s-8.777-2.926-14.629 0c-14.629 5.851-29.257 8.777-43.886 8.777-64.366 0-114.103-46.811-114.103-105.326 0-5.851 0-11.703 0-14.629 5.851-5.851 2.926-14.629-8.777-17.554 2.926 2.926 0 0 0 0z" />
<glyph unicode="&#xe944;" d="M506.149 848.823c-8.777 0-14.629 5.851-14.629 14.629v76.069c0 8.777 5.851 14.629 14.629 14.629s14.629-5.851 14.629-14.629v-76.069c0-5.851-5.851-14.629-14.629-14.629z" />
<glyph unicode="&#xe945;" d="M1003.52 562.103h-73.143c-8.777 0-14.629 5.851-14.629 14.629s5.851 14.629 14.629 14.629h73.143c8.777 0 14.629-5.851 14.629-14.629s-5.851-14.629-14.629-14.629z" />
<glyph unicode="&#xe946;" d="M781.166 737.646c-2.926 0-8.777 0-8.777 2.926-5.851 5.851-5.851 14.629 0 20.48l52.663 52.663c5.851 5.851 14.629 5.851 20.48 0s5.851-14.629 0-20.48l-52.663-52.663c-2.926 0-8.777-2.926-11.703-2.926z" />
<glyph unicode="&#xe947;" d="M231.131 737.646c-2.926 0-8.777 2.926-11.703 5.851l-49.737 52.663c-5.851 5.851-5.851 14.629 0 20.48s14.629 5.851 20.48 0l52.663-52.663c5.851-5.851 5.851-14.629 0-20.48-2.926-2.926-8.777-5.851-11.703-5.851z" />
<glyph unicode="&#xe948;" d="M90.697 562.103h-73.143c-8.777 0-14.629 5.851-14.629 14.629s5.851 14.629 14.629 14.629h73.143c8.777 0 14.629-5.851 14.629-14.629s-5.851-14.629-14.629-14.629z" />
<glyph unicode="&#xe949;" d="M523.703 257.829c-32.183 11.703-43.886 20.48-43.886 32.183s8.777 20.48 32.183 20.48c26.331 0 43.886-8.777 55.589-14.629l11.703 43.886c-11.703 5.851-29.257 11.703-55.589 11.703v35.109h-38.034v-38.034c-40.96-8.777-64.366-35.109-64.366-70.217 0-38.034 26.331-58.514 67.291-70.217 29.257-8.777 40.96-20.48 40.96-35.109s-14.629-23.406-35.109-23.406c-23.406 0-46.811 8.777-61.44 17.554l-11.703-46.811c14.629-8.777 38.034-14.629 64.366-17.554v-38.034h38.034v46.811c43.886 8.777 67.291 38.034 67.291 73.143-5.851 35.109-23.406 55.589-67.291 73.143z" />
<glyph unicode="&#xe94a;" d="M491.52 82.286h17.554v29.257c0 5.851 2.926 8.777 8.777 8.777 38.034 5.851 58.514 32.183 58.514 64.366 0 26.331-8.777 46.811-55.589 64.366 0 0 0 0 0 0-29.257 11.703-49.737 20.48-49.737 43.886 0 14.629 11.703 32.183 40.96 32.183 20.48 0 38.034-5.851 46.811-8.777l5.851 26.331c-11.703 5.851-26.331 8.777-43.886 8.777-5.851 0-8.777 2.926-8.777 8.777v26.331h-17.554v-26.331c0-5.851-2.926-8.777-8.777-8.777-35.109-5.851-55.589-29.257-55.589-61.44 0-29.257 17.554-46.811 61.44-61.44 23.406-8.777 46.811-20.48 46.811-43.886 0-20.48-17.554-35.109-43.886-35.109-23.406 0-43.886 5.851-55.589 11.703l-5.851-26.331c14.629-5.851 35.109-11.703 52.663-11.703 5.851 0 8.777-2.926 8.777-8.777v-32.183zM520.777 61.806h-38.034c-5.851 0-8.777 2.926-8.777 8.777v29.257c-23.406 2.926-43.886 8.777-58.514 17.554-5.851 2.926-5.851 5.851-5.851 11.703l11.703 46.811c0 2.926 2.926 5.851 5.851 5.851s5.851 0 8.777 0c11.703-5.851 32.183-14.629 58.514-14.629 5.851 0 26.331 0 26.331 14.629 0 5.851-2.926 14.629-35.109 26.331-35.109 11.703-73.143 32.183-73.143 81.92 0 38.034 23.406 67.291 64.366 76.069v29.257c0 5.851 2.926 8.777 8.777 8.777h38.034c5.851 0 8.777-2.926 8.777-8.777v-26.331c20.48-2.926 35.109-5.851 49.737-14.629 2.926-2.926 2.926-8.777 2.926-11.703l-11.703-43.886c0-2.926-2.926-5.851-5.851-5.851s-5.851 0-8.777 0h-2.926c-8.777 5.851-26.331 11.703-46.811 11.703-8.777 0-23.406-2.926-23.406-11.703 0-5.851 11.703-14.629 38.034-23.406 49.737-17.554 70.217-40.96 70.217-81.92 0-38.034-26.331-70.217-67.291-78.994v-32.183c2.926-8.777-2.926-14.629-5.851-14.629v0z" />
<glyph unicode="&#xe94b;" horiz-adv-x="1083" d="M658.286 769.829v73.143c0 55.589-46.811 102.4-102.4 102.4s-102.4-46.811-102.4-102.4v-73.143h204.8z" />
<glyph unicode="&#xe94c;" horiz-adv-x="1083" d="M672.914 755.2h-234.057v87.771c0 64.366 52.663 117.029 117.029 117.029s117.029-52.663 117.029-117.029v-87.771zM468.114 784.457h175.543v58.514c0 49.737-38.034 87.771-87.771 87.771s-87.771-38.034-87.771-87.771v-58.514z" />
<glyph unicode="&#xe94d;" horiz-adv-x="1083" d="M1003.52 108.617l-29.257 2.926c5.851 32.183 5.851 67.291 5.851 99.474 0 307.2-190.171 555.886-424.229 555.886s-424.229-245.76-424.229-552.96c0-35.109 2.926-67.291 5.851-99.474l-29.257-2.926c-5.851 35.109-5.851 70.217-5.851 105.326 0 321.829 204.8 585.143 453.486 585.143s453.486-263.314 453.486-585.143c0-38.034-2.926-73.143-5.851-108.251z" />
<glyph unicode="&#xe94e;" horiz-adv-x="1083" d="M301.349 401.189l-29.257 8.777 2.926 14.629c20.48 67.291 40.96 111.177 61.44 137.509s61.44 49.737 122.88 76.069l14.629 5.851 11.703-26.331-11.703-8.777c-55.589-23.406-93.623-46.811-111.177-70.217-17.554-20.48-38.034-64.366-55.589-125.806l-5.851-11.703z" />
<glyph unicode="&#xe94f;" horiz-adv-x="1083" d="M14.629 53.029h1053.257v-29.257h-1053.257v29.257z" />
<glyph unicode="&#xe950;" horiz-adv-x="1083" d="M102.4-34.743h906.971v-29.257h-906.971v29.257z" />
<glyph unicode="&#xe951;" glyph-name="fresh" d="M973.881 437.633c17.244-230.288-168.151-433.163-418.743-454.775-200.737-17.339-383.621 86.943-463.696 246.885h103.686v44.978h-195.127v-179.913h48.782v113.053c89.149-175.168 289.911-288.85 510.892-269.779 280.081 24.153 486.136 252.013 462.476 509.918l-48.27-10.367zM975.23 802.085v-114.46c-88.982 175.446-289.867 289.367-511.016 270.297-280.040-24.174-485.997-251.993-462.368-509.922l48.258 10.389c-17.216 230.27 168.112 433.128 418.645 454.738 200.349 17.293 382.872-86.576 463.148-245.989h-102.979v-44.975h195.082v179.898l-48.77 0.022z" />
<glyph unicode="&#xe958;" glyph-name="logout" d="M499.953 80.565c-174.682 0-319.247 144.565-319.247 319.247s144.565 319.247 319.247 319.247 319.247-144.565 319.247-319.247-144.565-319.247-319.247-319.247zM512-39.906c-265.035 0-481.882 216.847-481.882 475.859 0 180.706 102.4 349.365 265.035 427.671 12.047 6.024 30.118 0 42.165-12.047 6.024-12.047 0-30.118-12.047-42.165-144.565-66.259-234.918-210.824-234.918-373.459 0-228.894 186.729-415.624 421.647-415.624s421.647 186.729 421.647 415.624c0 156.612-90.353 301.176-234.918 373.459-12.047 6.024-18.071 24.094-12.047 42.165s24.094 18.071 42.165 12.047c162.635-84.329 265.035-246.965 265.035-427.671 0-265.035-216.847-475.859-481.882-475.859zM505.976 393.788c-18.071 0-30.118 12.047-30.118 30.118v475.859c0 18.071 12.047 30.118 30.118 30.118s30.118-12.047 30.118-30.118v-475.859c0-18.071-12.047-30.118-30.118-30.118z" />
<glyph unicode="&#xe959;" d="M541.257-61.074c0 0 0 0 0 0h-61.44c0 0 0 0 0 0-35.109 0-64.366 26.331-70.217 58.514l-11.703 64.366c-26.331 8.777-52.663 20.48-78.994 32.183l-52.663-38.034c-29.257-20.48-67.291-17.554-90.697 8.777l-43.886 43.886c-23.406 23.406-29.257 64.366-8.777 90.697l38.034 52.663c-14.629 26.331-23.406 52.663-32.183 78.994l-67.291 14.629c-35.109 5.851-58.514 35.109-58.514 70.217v61.44c0 35.109 26.331 64.366 58.514 70.217l64.366 11.703c8.777 26.331 17.554 55.589 32.183 78.994l-38.034 55.589c-20.48 29.257-17.554 67.291 8.777 90.697l43.886 43.886c23.406 23.406 64.366 29.257 90.697 8.777l55.589-38.034c26.331 14.629 52.663 23.406 78.994 32.183l11.703 67.291c5.851 35.109 35.109 58.514 70.217 58.514 0 0 0 0 0 0h61.44c35.109 0 64.366-26.331 70.217-58.514l11.703-64.366c26.331-8.777 55.589-17.554 78.994-32.183l55.589 38.034c29.257 20.48 67.291 17.554 90.697-8.777l43.886-43.886c23.406-23.406 29.257-64.366 8.777-90.697l-38.034-52.663c14.629-26.331 23.406-52.663 32.183-78.994l64.366-11.703c35.109-5.851 58.514-35.109 58.514-70.217v-61.44c0-35.109-26.331-64.366-58.514-70.217l-64.366-11.703c-8.777-26.331-20.48-52.663-32.183-78.994l38.034-55.589c20.48-29.257 17.554-67.291-8.777-90.697l-43.886-43.886c-23.406-23.406-64.366-29.257-90.697-8.777l-52.663 38.034c-26.331-14.629-52.663-23.406-78.994-32.183l-11.703-70.217c-5.851-35.109-38.034-58.514-73.143-58.514zM479.817-31.817h61.44c0 0 0 0 0 0 20.48 0 38.034 14.629 40.96 35.109l14.629 73.143c0 5.851 5.851 8.777 11.703 11.703 32.183 8.777 61.44 20.48 87.771 38.034 5.851 2.926 11.703 2.926 14.629 0l61.44-43.886c17.554-11.703 40.96-8.777 55.589 5.851l43.886 43.886c14.629 14.629 17.554 38.034 5.851 55.589l-43.886 61.44c-2.926 5.851-2.926 11.703 0 14.629 14.629 29.257 29.257 58.514 38.034 87.771 2.926 5.851 5.851 8.777 11.703 11.703l73.143 11.703c20.48 2.926 35.109 20.48 35.109 40.96v64.366c0 20.48-14.629 38.034-35.109 40.96v0l-73.143 11.703c-5.851 0-8.777 5.851-11.703 11.703-8.777 32.183-20.48 61.44-38.034 87.771-2.926 5.851-2.926 11.703 0 14.629l43.886 61.44c11.703 17.554 8.777 40.96-5.851 55.589l-43.886 43.886c-14.629 14.629-38.034 17.554-55.589 5.851l-61.44-43.886c-5.851-2.926-11.703-2.926-14.629 0-29.257 17.554-58.514 29.257-90.697 38.034-5.851 0-8.777 5.851-11.703 11.703l-8.777 73.143c-2.926 20.48-20.48 35.109-40.96 35.109h-61.44c-20.48 0-38.034-14.629-40.96-35.109l-11.703-73.143c0-5.851-5.851-8.777-11.703-11.703-32.183-8.777-61.44-20.48-87.771-38.034-5.851-2.926-11.703-2.926-14.629 0l-67.291 46.811c-17.554 11.703-40.96 8.777-55.589-5.851l-43.886-43.886c-14.629-14.629-14.629-38.034-2.926-55.589l43.886-61.44c2.926-5.851 2.926-11.703 0-14.629-17.554-29.257-29.257-58.514-38.034-90.697 0-5.851-5.851-8.777-11.703-11.703l-73.143-11.703c-20.48-2.926-35.109-20.48-35.109-40.96v-61.44c0-20.48 14.629-38.034 35.109-40.96l73.143-11.703c5.851 0 8.777-5.851 11.703-11.703 8.777-32.183 20.48-61.44 38.034-87.771 2.926-5.851 2.926-11.703 0-14.629l-43.886-67.291c-11.703-17.554-8.777-40.96 5.851-55.589l43.886-43.886c14.629-14.629 38.034-17.554 55.589-5.851l61.44 43.886c5.851 2.926 11.703 2.926 14.629 0 29.257-17.554 58.514-29.257 87.771-38.034 5.851 0 8.777-5.851 11.703-11.703l11.703-73.143c2.926-17.554 20.48-32.183 40.96-32.183 0 0 0 0 0 0z" />
<glyph unicode="&#xe95a;" d="M450.56 611.84c20.48 5.851 40.96 11.703 61.44 11.703 96.549 0 175.543-78.994 175.543-175.543s-78.994-175.543-175.543-175.543c-96.549 0-175.543 78.994-175.543 175.543 0 35.109 8.777 64.366 26.331 90.697z" />
<glyph unicode="&#xe95b;" d="M512 257.829c-105.326 0-190.171 84.846-190.171 190.171 0 35.109 8.777 70.217 29.257 99.474 2.926 5.851 14.629 8.777 20.48 5.851s8.777-14.629 5.851-20.48c-14.629-26.331-23.406-55.589-23.406-84.846 0-87.771 73.143-160.914 160.914-160.914s160.914 73.143 160.914 160.914c0 87.771-73.143 160.914-160.914 160.914-20.48 0-38.034-2.926-55.589-8.777-8.777-2.926-14.629 0-17.554 8.777s0 14.629 8.777 17.554c20.48 8.777 43.886 11.703 67.291 11.703 105.326 0 190.171-84.846 190.171-190.171-5.851-105.326-90.697-190.171-196.023-190.171z" />
<glyph unicode="&#xe95f;" glyph-name="member" horiz-adv-x="926" d="M463.238-64c-282.819 0-463.238 92.648-463.238 234.057 0 121.905 4.876 258.438 87.771 351.086 39.010 48.762 92.648 82.895 165.79 107.276 14.629 4.876 24.381-4.876 29.257-14.629 4.876-14.629-4.876-24.381-14.629-29.257-63.39-19.505-112.152-48.762-146.286-87.771-58.514-82.895-73.143-190.171-73.143-326.705 0-107.276 170.667-185.295 414.476-185.295 180.419 0 399.848 34.133 399.848 185.295 0 156.038-24.381 258.438-78.019 321.829-34.133 43.886-82.895 73.143-141.41 92.648-9.752 4.876-14.629 19.505-9.752 34.133s19.505 19.505 29.257 14.629c68.267-24.381 126.781-58.514 165.79-112.152 78.019-97.524 87.771-248.686 87.771-351.086 0-107.276-78.019-234.057-453.486-234.057zM458.362 462.629c-136.533 0-248.686 112.152-248.686 248.686s112.152 248.686 248.686 248.686c136.533 0 248.686-112.152 248.686-248.686 0-39.010-9.752-78.019-29.257-112.152-4.876-9.752-19.505-14.629-34.133-9.752-9.752 4.876-14.629 19.505-9.752 34.133 14.629 29.257 19.505 58.514 19.505 92.648 0 107.276-87.771 199.924-199.924 199.924-107.276-4.876-195.048-92.648-195.048-204.8s87.771-199.924 199.924-199.924c48.762 0 92.648 14.629 126.781 43.886 9.752 9.752 24.381 9.752 34.133-4.876 9.752-9.752 4.876-24.381-4.876-34.133-43.886-29.257-97.524-53.638-156.038-53.638zM775.314-10.362c0 0 0 0 0 0-14.629 0-24.381 14.629-24.381 29.257 0 0 19.505 126.781 0 248.686-9.752 73.143-53.638 87.771-58.514 87.771-9.752 4.876-14.629 19.505-9.752 34.133s19.505 19.505 29.257 14.629c4.876 0 73.143-24.381 87.771-126.781 19.505-131.657 0-258.438 0-263.314 0-14.629-9.752-24.381-24.381-24.381z" />
<glyph unicode="&#xe963;" glyph-name="notice" d="M640.006-64c-7.9 0.002-15.516 2.948-21.361 8.263l-310.864 279.734h-179.775c-51.468 0-128.005 34.095-128.005 128.001v191.99c0 51.466 34.117 128.001 127.994 128.001h179.715l310.862 279.797c9.391 8.514 22.908 10.561 34.419 5.432 11.571-5.123 19.027-16.594 19.012-29.248v-959.964c0-12.618-7.364-24.13-18.938-29.259-4.114-1.815-8.561-2.751-13.057-2.747v0zM127.996 607.978c-60.932 0-63.992-53.304-63.992-64v-191.991c0-60.856 53.315-64 63.992-64h191.996c7.94 0 15.555-2.936 21.373-8.263l266.634-239.853v816.242l-266.55-239.874c-5.891-5.305-13.496-8.263-21.446-8.263l-192.007 0.001zM799.997 639.982c-8.117 0-16.37 3.144-22.648 9.349-12.483 12.472-12.483 32.768 0 45.251l128.004 128c12.473 12.462 32.749 12.462 45.252 0 12.473-12.482 12.473-32.778 0-45.261l-127.994-127.99c-6.226-6.205-14.343-9.349-22.616-9.349h0.001zM992.003 415.998h-192.006c-17.592 0-31.997 14.321-31.997 31.995 0 17.664 14.405 31.995 31.996 31.995h192.008c17.727 0 31.996-14.342 31.996-31.995 0-17.674-14.269-31.995-31.996-31.995h-0.001zM928.001 64.001c-8.486 0.012-16.624 3.372-22.647 9.349l-128.004 128c-12.483 12.473-12.483 32.748 0 45.251 12.472 12.462 32.748 12.462 45.263 0l127.994-127.99c12.473-12.503 12.473-32.789 0-45.261-6.215-6.215-14.332-9.349-22.605-9.349h-0.001z" />
<glyph unicode="&#xe96c;" glyph-name="order" horiz-adv-x="870" d="M742.676-64h-614.953c-70.156 0-127.724 60.661-127.724 135.9v752.388c0 75.239 57.316 135.712 127.724 135.712h109.094v-56.429h-109.094c-42.63 0-77.373-35.55-77.373-79.283v-752.388c0-43.733 34.658-79.283 77.373-79.283h615.037c42.63 0 77.373 35.55 77.373 79.283v752.388c0 43.733-34.658 79.283-77.373 79.283h-101.709v56.429h101.625c70.156 0.188 127.724-60.473 127.724-135.712v-752.388c0-75.239-57.568-135.9-127.724-135.9zM533.611 901.553h-157.855c-8.985 0-17.288 5.57-21.78 14.612s-4.493 20.182 0 29.224c4.493 9.042 12.795 14.612 21.78 14.612h157.855c13.89 0 25.149-13.084 25.149-29.224s-11.26-29.224-25.149-29.224v0zM700.184 575.708h-481.612c-13.89 0-25.149 13.084-25.149 29.224s11.26 29.224 25.149 29.224h481.612c13.89 0 25.149-13.084 25.149-29.224s-11.26-29.224-25.149-29.224zM700.184 383.805h-481.612c-13.89 0-25.149 13.084-25.149 29.224s11.26 29.224 25.149 29.224h481.612c13.89 0 25.149-13.084 25.149-29.224s-11.26-29.224-25.149-29.224v0zM700.184 192h-481.612c-13.89 0-25.149 13.084-25.149 29.224s11.26 29.224 25.149 29.224h481.612c13.89 0 25.149-13.084 25.149-29.224s-11.26-29.224-25.149-29.224v0z" />
<glyph unicode="&#xe96d;" d="M503.223 924.891h-239.909c-8.777 0-14.629 5.851-14.629 14.629s5.851 14.629 14.629 14.629h242.834c8.777 0 14.629-5.851 14.629-14.629s-8.777-14.629-17.554-14.629z" />
<glyph unicode="&#xe96e;" d="M748.983-58.149h-731.429c-8.777 0-14.629 5.851-14.629 14.629v983.040c0 8.777 5.851 14.629 14.629 14.629h114.103c8.777 0 14.629-5.851 14.629-14.629s-5.851-14.629-11.703-14.629h-102.4v-956.709h702.171v956.709h-99.474c-8.777 0-14.629 5.851-14.629 14.629s5.851 14.629 14.629 14.629h114.103c8.777 0 14.629-5.851 14.629-14.629v-985.966c0-5.851-5.851-11.703-14.629-11.703z" />
<glyph unicode="&#xe96f;" d="M582.217 655.726h-359.863c-8.777 0-14.629 5.851-14.629 14.629s5.851 14.629 14.629 14.629h359.863c8.777 0 14.629-5.851 14.629-14.629s-8.777-14.629-14.629-14.629z" />
<glyph unicode="&#xe970;" d="M526.629 433.371h-333.531c-8.777 0-14.629 5.851-14.629 14.629s5.851 14.629 14.629 14.629h333.531c8.777 0 14.629-5.851 14.629-14.629s-8.777-14.629-14.629-14.629z" />
<glyph unicode="&#xe971;" d="M441.783 240.274h-219.429c-8.777 0-14.629 5.851-14.629 14.629s5.851 14.629 14.629 14.629h222.354c8.777 0 14.629-5.851 14.629-14.629s-8.777-14.629-17.554-14.629z" />
<glyph unicode="&#xe972;" d="M702.962 24.325l-196.023 207.726 58.514 61.44 119.954-111.177c14.629-11.703 35.109 2.926 46.811 17.554l204.8 280.869 67.291-52.663 11.703-8.777-313.051-394.971z" />
<glyph unicode="&#xe973;" d="M702.962 9.696c-2.926 0-8.777 2.926-11.703 5.851l-193.097 204.8c-5.851 5.851-5.851 14.629 0 20.48l58.514 61.44c5.851 5.851 14.629 5.851 20.48 0l125.806-114.103 222.354 301.349c2.926 2.926 5.851 5.851 8.777 5.851s8.777 0 11.703-2.926l78.994-61.44c5.851-5.851 8.777-14.629 2.926-20.48s-14.629-8.777-20.48-2.926l-67.291 52.663-225.28-301.349c-2.926-2.926-5.851-5.851-11.703-5.851-2.926 0-8.777 0-11.703 2.926l-122.88 117.029-40.96-40.96 175.543-187.246 263.314 339.383c5.851 5.851 14.629 8.777 20.48 2.926s8.777-14.629 2.926-20.48l-275.017-351.086c-2.926-5.851-5.851-5.851-11.703-5.851 0 0 0 0 0 0z" />
<glyph unicode="&#xe974;" glyph-name="password" horiz-adv-x="926" d="M882.59-64h-858.21c-14.629 0-24.381 9.752-24.381 24.381v585.143c0 14.629 9.752 24.381 24.381 24.381h536.381c14.629 0 24.381-9.752 24.381-24.381s-9.752-24.381-24.381-24.381h-512v-536.381h809.448v536.381h-92.648c-14.629 0-24.381 9.752-24.381 24.381s9.752 24.381 24.381 24.381h117.029c14.629 0 24.381-9.752 24.381-24.381v-585.143c0-14.629-9.752-24.381-24.381-24.381zM453.486 92.038c-87.771 0-160.914 73.143-160.914 160.914s73.143 160.914 160.914 160.914 160.914-73.143 160.914-160.914-73.143-160.914-160.914-160.914zM453.486 365.105c-63.39 0-112.152-48.762-112.152-112.152s48.762-112.152 112.152-112.152c63.39 0 112.152 48.762 112.152 112.152s-48.762 112.152-112.152 112.152zM234.057 521.143c-14.629 0-24.381 9.752-24.381 24.381v131.657c0 282.819 243.81 282.819 243.81 282.819 14.629 0 24.381-9.752 24.381-24.381s-9.752-24.381-24.381-24.381c-9.752 0-195.048-4.876-195.048-234.057v-131.657c0-14.629-9.752-24.381-24.381-24.381zM672.914 652.8c-14.629 0-24.381 9.752-24.381 24.381 0 4.876 0 9.752 0 14.629-9.752 214.552-185.295 219.429-195.048 219.429-14.629 0-24.381 9.752-24.381 24.381s9.752 24.381 24.381 24.381c0 0 234.057-4.876 243.81-268.19 0-4.876 0-9.752 0-14.629 0-14.629-9.752-24.381-24.381-24.381z" />
<glyph unicode="&#xe978;" horiz-adv-x="1050" d="M617.026-37.744h-131.282c-49.887 0-91.897 42.010-91.897 91.897v551.385c0 49.887 42.010 91.897 91.897 91.897h131.282c49.887 0 91.897-42.010 91.897-91.897v-551.385c0-49.887-42.010-91.897-91.897-91.897zM485.744 671.179c-36.759 0-65.641-28.882-65.641-65.641v-551.385c0-36.759 28.882-65.641 65.641-65.641h131.282c36.759 0 65.641 28.882 65.641 65.641v551.385c0 36.759-28.882 65.641-65.641 65.641h-131.282z" />
<glyph unicode="&#xe979;" horiz-adv-x="1050" d="M575.015 434.872h-36.759v136.533c-13.128-13.128-28.882-21.005-47.262-26.256v31.508c10.503 2.626 18.379 7.877 31.508 18.379 10.503 7.877 18.379 18.379 23.631 28.882h28.882v-189.046z" />
<glyph unicode="&#xe97a;" horiz-adv-x="1050" d="M288.821-50.872h-105.026c-49.887 0-91.897 39.385-91.897 89.272v399.097c0 49.887 42.010 89.272 91.897 89.272h105.026v-26.256h-105.026c-36.759 0-65.641-28.882-65.641-63.015v-401.723c0-34.133 28.882-63.015 65.641-63.015h105.026v-23.631z" />
<glyph unicode="&#xe97b;" horiz-adv-x="1050" d="M291.446 285.21v-34.133h-128.656c2.626 13.128 5.251 23.631 13.128 36.759 7.877 10.503 21.005 26.256 39.385 44.636 15.754 15.754 26.256 26.256 28.882 31.508 5.251 7.877 7.877 15.754 7.877 21.005 0 7.877-2.626 13.128-5.251 18.379s-10.503 5.251-15.754 5.251c-7.877 0-13.128-2.626-18.379-7.877s-7.877-13.128-7.877-23.631l-36.759 2.626c2.626 21.005 7.877 34.133 21.005 42.010s26.256 13.128 42.010 13.128c18.379 0 34.133-5.251 44.636-15.754s15.754-23.631 15.754-36.759c0-7.877-2.626-15.754-5.251-23.631s-7.877-15.754-13.128-23.631c-5.251-5.251-13.128-13.128-23.631-23.631s-18.379-18.379-21.005-21.005-5.251-7.877-7.877-10.503h70.892z" />
<glyph unicode="&#xe97c;" horiz-adv-x="1050" d="M892.718-50.872h-105.026v26.256h105.026c36.759 0 65.641 28.882 65.641 63.015v399.097c0 34.133-28.882 63.015-65.641 63.015h-105.026v26.256h105.026c49.887 0 91.897-39.385 91.897-89.272v-401.723c0-47.262-42.010-86.646-91.897-86.646z" />
<glyph unicode="&#xe97d;" horiz-adv-x="1050" d="M771.938 300.964l34.133 5.251c0-7.877 5.251-15.754 7.877-21.005s10.503-7.877 18.379-7.877c7.877 0 13.128 2.626 18.379 7.877s7.877 13.128 7.877 23.631c0 7.877-2.626 15.754-7.877 21.005s-10.503 7.877-18.379 7.877c-5.251 0-10.503 0-15.754-2.626l5.251 28.882c10.503 0 18.379 2.626 21.005 5.251 5.251 5.251 7.877 10.503 7.877 18.379 0 5.251-2.626 10.503-5.251 15.754s-7.877 5.251-15.754 5.251c-5.251 0-10.503-2.626-15.754-5.251s-7.877-10.503-7.877-18.379l-34.133 5.251c2.626 10.503 5.251 21.005 10.503 26.256 5.251 7.877 10.503 13.128 18.379 15.754s18.379 5.251 28.882 5.251c18.379 0 31.508-5.251 42.010-15.754 7.877-10.503 13.128-18.379 13.128-31.508 0-15.754-7.877-28.882-26.256-39.385 10.503-2.626 18.379-7.877 26.256-15.754 5.251-7.877 10.503-18.379 10.503-28.882 0-15.754-5.251-31.508-18.379-42.010s-26.256-18.379-44.636-18.379c-15.754 0-31.508 5.251-42.010 15.754s-18.379 23.631-18.379 39.385z" />
<glyph unicode="&#xe97e;" horiz-adv-x="1050" d="M538.256 941.621h26.256v-115.528h-26.256v115.528z" />
<glyph unicode="&#xe97f;" horiz-adv-x="1050" d="M187.285 835.715l17.568 19.511 85.849-77.3-17.568-19.511-85.849 77.3z" />
<glyph unicode="&#xe980;" horiz-adv-x="1050" d="M-2.267 597.313l4.555 25.857 113.772-20.044-4.555-25.857-113.772 20.044z" />
<glyph unicode="&#xe981;" horiz-adv-x="1050" d="M933.387 631.505l114.408 16.024 3.642-26.002-114.408-16.024-3.642 26.002z" />
<glyph unicode="&#xe982;" horiz-adv-x="1050" d="M790.178 771.123l72.702 89.789 20.406-16.523-72.702-89.789-20.406 16.523z" />
<glyph unicode="&#xe983;" glyph-name="restaurant" d="M843.723 960h-664.772c-99.417 0-178.951-79.534-178.951-178.951v-666.097c0-99.417 79.534-178.951 178.951-178.951h666.097c99.417 0 178.951 79.534 178.951 178.951v665.434c0 100.080-79.534 179.614-180.277 179.614zM967.001 114.951c0-68.267-54.348-122.615-122.615-122.615h-665.434c-68.267 0-122.615 54.348-122.615 122.615v665.434c0 68.267 54.348 122.615 122.615 122.615h666.097c68.267 0 122.615-54.348 122.615-122.615l-0.663-665.434zM819.2 580.812c0 96.335-54.465 174.388-122.386 174.388s-124.308-78.053-124.308-174.388c0-78.053 36.524-145.557 87.785-167.356l-16.66-251.034c0-33.049 24.99-61.879 53.183-61.879 30.116 0 53.183 28.83 53.183 63.286l-16.66 248.924c51.261 24.611 85.862 92.116 85.862 168.059zM711.551 445.099c0 0 0-2.11 0 0-3.204-2.11-3.204-2.11-5.126-2.11s-1.922-2.11-1.922-2.11c-1.922 0-1.922-2.11-1.922-2.11 0-2.11-1.922-2.11-1.922-3.516s0-2.11-1.922-3.516v-5.625l17.941-261.581c0-12.657-10.252-25.314-19.864-25.314-11.534 0-19.864 11.251-19.864 23.908l17.941 263.691v5.625c0 2.11 0 2.11-1.922 2.11 0 2.11-1.922 2.11-1.922 3.516l-5.126 5.625c0 0-1.922 0-1.922 2.11-1.922 0-1.922 2.11-3.204 2.11-44.854 9.141-78.173 67.505-78.173 134.307 0 76.646 39.727 137.822 89.707 137.822s89.707-61.879 89.707-137.822c3.845-68.208-27.553-126.572-70.484-137.119v0zM532.778 533.7l-11.534 201.812c0 11.251-8.33 18.283-17.941 16.173-10.252 0-16.66-9.141-14.738-19.689l10.252-180.013h-75.61v183.529c0 11.251-6.408 18.283-16.66 18.283s-16.66-7.032-16.66-18.283v-181.419h-67.921l10.252 180.013c0 11.251-6.408 18.283-14.738 19.689-10.252 0-17.941-7.032-17.941-18.283l-11.534-199.702c-6.408-45.706 11.534-90.71 44.854-116.024 13.456-9.141 26.271-14.767 37.805-14.767l-14.738-243.299c0-33.049 24.99-61.879 54.465-61.879 30.116 0 54.465 28.83 54.465 63.286l-16.66 243.299c11.534 0 26.271 5.625 39.727 14.767 33.32 23.908 51.261 68.911 44.854 112.508v0zM469.342 452.131c-8.33-5.625-14.738-7.032-21.786-7.032h-17.941c-5.126 0-8.33-3.516-11.534-7.032s-5.126-9.141-5.126-14.767l17.941-261.581c0-12.657-10.252-25.314-21.786-25.314s-21.786 11.251-21.786 23.908l16.66 263.691c0 5.625-1.922 11.251-5.126 14.767-1.922 3.516-6.408 7.032-11.534 7.032h-16.66c-6.408 0-13.456 2.11-21.786 7.032-17.941 14.767-30.116 28.83-30.116 65.395h182.618c0-37.268-11.534-51.332-32.038-66.099v0z" />
<glyph unicode="&#xe984;" glyph-name="scan" d="M296.635-64h-203.769c-51.226 0-92.763 44.321-92.763 98.736v172.678c0 15.359 11.75 27.865 26.18 27.865s26.18-12.507 26.18-27.865v-172.678c0-23.697 18.14-43.115 40.506-43.115h203.872c14.43 0 26.18-12.507 26.18-27.865s-11.853-27.756-26.386-27.756v0zM931.134-64h-201.296c-14.43 0-26.18 12.507-26.18 27.865s11.75 27.865 26.18 27.865h201.296c22.263 0 40.506 19.308 40.506 43.115v176.189c0 15.359 11.75 27.865 26.18 27.865s26.18-12.507 26.18-27.865v-176.298c-0.103-54.414-41.743-98.736-92.866-98.736v0zM997.717 664.561c-14.43 0-26.18 12.507-26.18 27.865v168.729c0 23.697-18.14 43.115-40.506 43.115h-203.769c-14.43 0-26.18 12.507-26.18 27.865s11.75 27.865 26.18 27.865h203.872c51.226 0 92.763-44.321 92.763-98.736v-168.619c0-15.578-11.647-28.085-26.18-28.085zM26.18 660.611c-14.43 0-26.18 12.507-26.18 27.865v172.678c0 54.524 41.64 98.736 92.763 98.736h205.212c14.43 0 26.18-12.507 26.18-27.865s-11.75-27.865-26.18-27.865h-205.109c-22.263 0-40.506-19.308-40.506-43.115v-172.568c0-15.359-11.647-27.865-26.18-27.865zM894.75 420.025h-765.501c-14.43 0-26.18 12.507-26.18 27.865s11.75 27.865 26.18 27.865h765.501c14.43 0 26.18-12.507 26.18-27.865s-11.75-27.865-26.18-27.865z" />
<glyph unicode="&#xe985;" glyph-name="search" d="M900.267 59.733c-8.533-8.533-21.333-8.533-29.867 0l-130.133 132.267c-66.133-59.733-153.6-96-249.6-96-206.933 0-373.333 166.4-373.333 373.333s166.4 371.2 373.333 371.2 373.333-166.4 373.333-373.333c0-93.867-36.267-181.333-93.867-245.333l130.133-130.133c8.533-8.533 8.533-23.467 0-32zM490.667 797.867c-183.467 0-330.667-147.2-330.667-330.667s147.2-330.667 330.667-330.667 330.667 147.2 330.667 330.667-149.333 330.667-330.667 330.667z" />
<glyph unicode="&#xe990;" glyph-name="table" d="M220.876 437.949h576.291l-17.321 199.97h-541.669l-17.301-199.97zM215.214 372.522l-35.112-405.67c-0.847-11.784-6.395-22.038-14.506-26.81s-17.52-3.32-24.602 3.798c-7.082 7.118-10.732 18.792-9.544 30.523l57.429 663.556h-88.583c-37.346 0-72.497 26.485-77.63 67.625l-22.004 176.076c-5.976 47.945 29.371 78.381 70.949 78.381h880.778c41.578 0 76.925-30.436 70.949-78.381l-22.004-176.076c-5.134-41.14-40.285-67.625-77.63-67.625h-94.54l57.606-665.44c1.553-17.951-8.084-34.185-21.524-36.259s-25.594 10.797-27.147 28.748l-35.269 407.555h-587.616zM974.275 888.005c-4.487 3.873-12.403 6.569-21.886 6.569h-880.778c-9.483 0-17.419-2.696-21.886-6.569l-0.176-0.131 21.436-171.548c0.411-3.376 13.147-12.981 29.312-12.981h823.407c16.165 0 28.901 9.605 29.312 12.981l21.436 171.548-0.176 0.131zM977.843 892.375l-2.339-5.252c3.63-0.733 0.645 1.527 2.339 5.252z" />
<glyph unicode="&#xe991;" horiz-adv-x="1054" d="M21.082 797.365h1011.953v132.518h-1011.953z" />
<glyph unicode="&#xe992;" horiz-adv-x="1054" d="M1033.035 792.085h-1011.953c-9.035 0-15.059 6.024-15.059 15.059v111.435c0 9.035 6.024 15.059 15.059 15.059h1014.965c9.035 0 15.059-6.024 15.059-15.059v-111.435c-3.012-9.035-9.035-15.059-18.071-15.059zM36.141 822.203h984.847v81.318h-984.847v-81.318z" />
<glyph unicode="&#xe993;" horiz-adv-x="1054" d="M180.706-39.162c-9.035 0-15.059 6.024-15.059 15.059v831.247c0 9.035 6.024 15.059 15.059 15.059s15.059-6.024 15.059-15.059v-831.247c0-9.035-6.024-15.059-15.059-15.059z" />
<glyph unicode="&#xe994;" horiz-adv-x="1054" d="M855.341-39.162c-9.035 0-15.059 6.024-15.059 15.059v831.247c0 9.035 6.024 15.059 15.059 15.059s15.059-6.024 15.059-15.059v-831.247c0-9.035-6.024-15.059-15.059-15.059z" />
<glyph unicode="&#xe995;" horiz-adv-x="1054" d="M518.024 514.259h-337.318c-9.035 0-15.059 6.024-15.059 15.059s6.024 15.059 15.059 15.059h334.306c9.035 0 15.059-6.024 15.059-15.059s-3.012-15.059-12.047-15.059z" />
<glyph unicode="&#xe996;" horiz-adv-x="1054" d="M855.341 514.259h-150.588c-9.035 0-15.059 6.024-15.059 15.059s6.024 15.059 15.059 15.059h150.588c9.035 0 15.059-6.024 15.059-15.059s-6.024-15.059-15.059-15.059z" />
<glyph unicode="&#xe99e;" glyph-name="thirdpay" d="M953.856-64h-883.751c-38.781 0.207-70.105 30.346-70.105 67.453v773.485c0 57.316 45.568 101.142 105.236 101.142h382.74v-67.453h-382.74c-21.071 0-35.052-13.453-35.052-33.689s13.982-33.726 35.052-33.726h848.62c38.597 0 70.144-30.335 70.144-67.453v-672.306c0-37.121-31.347-67.266-70.144-67.453zM70.105 682.504v-671.138h875.126v659.155h-826.486c-19.417 0-33.989 6.029-48.601 12.021v-0.038h-0.039zM329.49 283.324c-20.19 0-36.518-16.708-36.518-37.395s16.327-37.395 36.518-37.395h145.991v-112.259c0-20.65 16.327-37.395 36.518-37.395s36.518 16.708 36.518 37.395v112.259h145.991c20.19 0 36.518 16.708 36.518 37.395s-16.327 37.395-36.518 37.395h-145.991v74.827h145.991c20.19 0 36.518 16.708 36.518 37.395 0 20.725-16.327 37.432-36.518 37.432h-94.341l83.748 85.79c14.253 15.088 14.253 37.851 0 52.938-6.553 6.975-15.962 10.968-25.845 10.968s-19.292-3.993-25.845-10.968l-120.106-123.185-121.38 124.987c-6.536 6.989-15.935 11.002-25.818 11.024s-19.302-3.951-25.872-10.911c-14.287-15.059-14.339-37.822-0.119-52.938l85.221-87.855h-94.659c-20.19 0-36.518-16.708-36.518-37.395 0-20.65 16.327-37.395 36.518-37.395h145.991v-74.827l-145.991 0.113zM776.184 697.145c-14.058 0-24.65 6.608-31.699 19.749l-91.593 168.014-391.061-184.458c-14.097-6.608-35.243 0-45.796 16.445-7.049 13.178 0 32.964 17.602 42.801l422.8 197.712c17.602 6.608 38.748 0 45.796-13.141l105.65-197.674c7.088-16.482 0-36.231-14.058-42.801-7.049-6.645-10.633-6.645-17.642-6.645z" />
<glyph unicode="&#xe9b5;" glyph-name="wechat" d="M826.89 960h-629.787c-5.416 0-10.768-0.28-16.088-0.712-1-0.080-2-0.136-2.984-0.224-4.528-0.44-9.008-1.064-13.448-1.808-1.952-0.32-3.888-0.656-5.816-1.032-3.592-0.712-7.152-1.504-10.672-2.408-2.933-0.757-5.848-1.582-8.744-2.472l-1.232-0.392c-69.119-21.464-121.431-79.6-135.615-152.248l0.736-0.328c-2.143-11.705-3.227-23.58-3.24-35.48v-629.8c0-107.496 86.999-197.096 197.102-197.096h629.795c5.416 0 10.776 0.28 16.088 0.712 1 0.080 2 0.136 2.984 0.224 4.502 0.447 8.987 1.050 13.448 1.808 8.54 1.399 16.976 3.376 25.248 5.92l1.232 0.392c69.111 21.472 121.423 79.608 135.607 152.248l-0.736 0.328c2.088 11.496 3.232 23.336 3.232 35.48v629.784c-0.008 107.504-87.007 197.104-197.11 197.104zM512.196 165.896c-39.743-0.065-79.297 5.456-117.503 16.4-3.43 1.077-7.005 1.617-10.6 1.6-6.8-0.104-13.4-2-19.104-5.504l-78.695-45.4c-2-1.296-4.4-2.104-6.904-2.2-6.6 0-12 5.304-12 11.904 0.304 3 0.904 6 1.904 8.8l16.2 60.4c0.8 2.504 1.2 5.104 1.304 7.808 0 7.8-3.8 15.096-10.104 19.592-75.695 54.904-124.095 136.2-124.095 226.304 0 165.296 160.895 299.496 359.093 299.496 121.391 0 228.598-50.096 293.798-126.8l-362.989-161.496c-10.6-4-22.4-2.6-31.896 3.6l-77.199 54.8c-2.069 1.574-4.601 2.418-7.2 2.4-4.106-0.005-7.927-2.104-10.133-5.567s-2.494-7.813-0.763-11.537l65.399-143.504 1.6-3.4c6.286-11.176 20.265-15.409 31.696-9.6l0.2-0.296 2.592 1.504 413.693 238.8c26.516-41.415 40.7-89.52 40.896-138.696 0.008-165.408-160.799-299.408-359.189-299.408v0z" />
</font>
</defs>
</svg>
